# Blender v3.5.1 OBJ File: 'untitled.blend'
# www.blender.org
mtllib coin.mtl
o Cylinder
v 0.000000 -0.020000 -1.000000
v 0.000000 0.020000 -1.000000
v 0.195090 -0.020000 -0.980785
v 0.195090 0.020000 -0.980785
v 0.382683 -0.020000 -0.923880
v 0.382683 0.020000 -0.923880
v 0.555570 -0.020000 -0.831470
v 0.555570 0.020000 -0.831470
v 0.707107 -0.020000 -0.707107
v 0.707107 0.020000 -0.707107
v 0.831470 -0.020000 -0.555570
v 0.831470 0.020000 -0.555570
v 0.923880 -0.020000 -0.382683
v 0.923880 0.020000 -0.382683
v 0.980785 -0.020000 -0.195090
v 0.980785 0.020000 -0.195090
v 1.000000 -0.020000 0.000000
v 1.000000 0.020000 0.000000
v 0.980785 -0.020000 0.195090
v 0.980785 0.020000 0.195090
v 0.923880 -0.020000 0.382683
v 0.923880 0.020000 0.382683
v 0.831470 -0.020000 0.555570
v 0.831470 0.020000 0.555570
v 0.707107 -0.020000 0.707107
v 0.707107 0.020000 0.707107
v 0.555570 -0.020000 0.831470
v 0.555570 0.020000 0.831470
v 0.382683 -0.020000 0.923880
v 0.382683 0.020000 0.923880
v 0.195090 -0.020000 0.980785
v 0.195090 0.020000 0.980785
v 0.000000 -0.020000 1.000000
v 0.000000 0.020000 1.000000
v -0.195090 -0.020000 0.980785
v -0.195090 0.020000 0.980785
v -0.382683 -0.020000 0.923880
v -0.382683 0.020000 0.923880
v -0.555570 -0.020000 0.831470
v -0.555570 0.020000 0.831470
v -0.707107 -0.020000 0.707107
v -0.707107 0.020000 0.707107
v -0.831470 -0.020000 0.555570
v -0.831470 0.020000 0.555570
v -0.923880 -0.020000 0.382683
v -0.923880 0.020000 0.382683
v -0.980785 -0.020000 0.195090
v -0.980785 0.020000 0.195090
v -1.000000 -0.020000 0.000000
v -1.000000 0.020000 0.000000
v -0.980785 -0.020000 -0.195090
v -0.980785 0.020000 -0.195090
v -0.923880 -0.020000 -0.382683
v -0.923880 0.020000 -0.382683
v -0.831470 -0.020000 -0.555570
v -0.831470 0.020000 -0.555570
v -0.707107 -0.020000 -0.707107
v -0.707107 0.020000 -0.707107
v -0.555570 -0.020000 -0.831470
v -0.555570 0.020000 -0.831470
v -0.382683 -0.020000 -0.923880
v -0.382683 0.020000 -0.923880
v -0.195090 -0.020000 -0.980785
v -0.195090 0.020000 -0.980785
vt 0.687925 0.706904
vt 0.714415 0.706904
vt 0.714415 0.761659
vt 0.687925 0.761659
vt 0.687925 0.706904
vt 0.714415 0.706904
vt 0.714415 0.761659
vt 0.687925 0.761659
vt 0.687925 0.706904
vt 0.714415 0.706904
vt 0.714415 0.761659
vt 0.687925 0.761659
vt 0.687925 0.706904
vt 0.714415 0.706904
vt 0.714415 0.761659
vt 0.687925 0.761659
vt 0.687925 0.706904
vt 0.714415 0.706904
vt 0.714415 0.761659
vt 0.687925 0.761659
vt 0.687925 0.706904
vt 0.714415 0.706904
vt 0.714415 0.761659
vt 0.687925 0.761659
vt 0.687925 0.706904
vt 0.714415 0.706904
vt 0.714415 0.761659
vt 0.687925 0.761659
vt 0.687925 0.706904
vt 0.714415 0.706904
vt 0.714415 0.761659
vt 0.687925 0.761659
vt 0.687925 0.706904
vt 0.714415 0.706904
vt 0.714415 0.761659
vt 0.687925 0.761659
vt 0.687925 0.706904
vt 0.714415 0.706904
vt 0.714415 0.761659
vt 0.687925 0.761659
vt 0.687925 0.706904
vt 0.714415 0.706904
vt 0.714415 0.761659
vt 0.687925 0.761659
vt 0.687925 0.706904
vt 0.714415 0.706904
vt 0.714415 0.761659
vt 0.687925 0.761659
vt 0.687925 0.706904
vt 0.714415 0.706904
vt 0.714415 0.761659
vt 0.687925 0.761659
vt 0.687925 0.706904
vt 0.714415 0.706904
vt 0.714415 0.761659
vt 0.687925 0.761659
vt 0.687925 0.706904
vt 0.714415 0.706904
vt 0.714415 0.761659
vt 0.687925 0.761659
vt 0.687925 0.706904
vt 0.714415 0.706904
vt 0.714415 0.761659
vt 0.687925 0.761659
vt 0.687925 0.706904
vt 0.714415 0.706904
vt 0.714415 0.761659
vt 0.687925 0.761659
vt 0.687925 0.706904
vt 0.714415 0.706904
vt 0.714415 0.761659
vt 0.687925 0.761659
vt 0.687925 0.706904
vt 0.714415 0.706904
vt 0.714415 0.761659
vt 0.687925 0.761659
vt 0.687925 0.706904
vt 0.714415 0.706904
vt 0.714415 0.761659
vt 0.687925 0.761659
vt 0.687925 0.706904
vt 0.714415 0.706904
vt 0.714415 0.761659
vt 0.687925 0.761659
vt 0.687925 0.706904
vt 0.714415 0.706904
vt 0.714415 0.761659
vt 0.687925 0.761659
vt 0.687925 0.706904
vt 0.714415 0.706904
vt 0.714415 0.761659
vt 0.687925 0.761659
vt 0.687925 0.706904
vt 0.714415 0.706904
vt 0.714415 0.761659
vt 0.687925 0.761659
vt 0.687925 0.706904
vt 0.714415 0.706904
vt 0.714415 0.761659
vt 0.687925 0.761659
vt 0.687925 0.706904
vt 0.714415 0.706904
vt 0.714415 0.761659
vt 0.687925 0.761659
vt 0.687925 0.706904
vt 0.714415 0.706904
vt 0.714415 0.761659
vt 0.687925 0.761659
vt 0.687925 0.706904
vt 0.714415 0.706904
vt 0.714415 0.761659
vt 0.687925 0.761659
vt 0.687925 0.706904
vt 0.714415 0.706904
vt 0.714415 0.761659
vt 0.687925 0.761659
vt 0.687925 0.706904
vt 0.714415 0.706904
vt 0.714415 0.761659
vt 0.687925 0.761659
vt 0.127784 0.045191
vt 0.157646 0.026324
vt 0.188171 0.025768
vt 0.218184 0.043544
vt 0.246533 0.078971
vt 0.272128 0.130686
vt 0.293985 0.196702
vt 0.311265 0.274482
vt 0.323304 0.361036
vt 0.329638 0.453040
vt 0.330024 0.546957
vt 0.324449 0.639177
vt 0.313124 0.726158
vt 0.296487 0.804555
vt 0.275177 0.871358
vt 0.250011 0.923997
vt 0.221958 0.960451
vt 0.192095 0.979318
vt 0.161571 0.979875
vt 0.131557 0.962098
vt 0.103209 0.926671
vt 0.077614 0.874956
vt 0.055756 0.808940
vt 0.038476 0.731160
vt 0.026438 0.644605
vt 0.020104 0.552601
vt 0.019717 0.458685
vt 0.025293 0.366465
vt 0.036617 0.279484
vt 0.053254 0.201087
vt 0.074565 0.134285
vt 0.099731 0.081645
vt 0.687925 0.706904
vt 0.714415 0.706904
vt 0.714415 0.761659
vt 0.687925 0.761659
vt 0.687925 0.706904
vt 0.714415 0.706904
vt 0.714415 0.761659
vt 0.687925 0.761659
vt 0.487647 0.026582
vt 0.518161 0.027176
vt 0.548050 0.046037
vt 0.576165 0.082441
vt 0.601427 0.134988
vt 0.622864 0.201658
vt 0.639653 0.279891
vt 0.651148 0.366680
vt 0.656908 0.458688
vt 0.656712 0.552382
vt 0.650566 0.644158
vt 0.638707 0.730492
vt 0.621592 0.808065
vt 0.599876 0.873896
vt 0.574396 0.925455
vt 0.546130 0.960761
vt 0.516165 0.978457
vt 0.485651 0.977863
vt 0.455762 0.959002
vt 0.427647 0.922598
vt 0.402385 0.870051
vt 0.380948 0.803380
vt 0.364159 0.725147
vt 0.352664 0.638359
vt 0.346904 0.546350
vt 0.347100 0.452657
vt 0.353246 0.360880
vt 0.365105 0.274546
vt 0.382221 0.196973
vt 0.403936 0.131142
vt 0.429416 0.079583
vt 0.457682 0.044277
vn 0.0000 0.0000 -1.0000
vn 0.1951 0.0000 -0.9808
vn 0.3827 0.0000 -0.9239
vn 0.5556 0.0000 -0.8315
vn 0.7071 0.0000 -0.7071
vn 0.8315 0.0000 -0.5556
vn 0.9239 0.0000 -0.3827
vn 0.9808 0.0000 -0.1951
vn 1.0000 0.0000 0.0000
vn 0.9808 0.0000 0.1951
vn 0.9239 0.0000 0.3827
vn 0.8315 0.0000 0.5556
vn 0.7071 0.0000 0.7071
vn 0.5556 0.0000 0.8315
vn 0.3827 0.0000 0.9239
vn 0.1951 0.0000 0.9808
vn 0.0000 0.0000 1.0000
vn -0.1951 0.0000 0.9808
vn -0.3827 0.0000 0.9239
vn -0.5556 0.0000 0.8315
vn -0.7071 0.0000 0.7071
vn -0.8315 0.0000 0.5556
vn -0.9239 0.0000 0.3827
vn -0.9808 0.0000 0.1951
vn -1.0000 0.0000 0.0000
vn -0.9808 0.0000 -0.1951
vn -0.9239 0.0000 -0.3827
vn -0.8315 0.0000 -0.5556
vn -0.7071 0.0000 -0.7071
vn -0.5556 0.0000 -0.8315
vn -0.3827 0.0000 -0.9239
vn 0.0000 1.0000 -0.0000
vn -0.1951 0.0000 -0.9808
vn 0.0000 -1.0000 -0.0000
usemtl quarter
s 1
f 1/1/1 2/2/1 4/3/2 3/4/2
f 3/5/2 4/6/2 6/7/3 5/8/3
f 5/9/3 6/10/3 8/11/4 7/12/4
f 7/13/4 8/14/4 10/15/5 9/16/5
f 9/17/5 10/18/5 12/19/6 11/20/6
f 11/21/6 12/22/6 14/23/7 13/24/7
f 13/25/7 14/26/7 16/27/8 15/28/8
f 15/29/8 16/30/8 18/31/9 17/32/9
f 17/33/9 18/34/9 20/35/10 19/36/10
f 19/37/10 20/38/10 22/39/11 21/40/11
f 21/41/11 22/42/11 24/43/12 23/44/12
f 23/45/12 24/46/12 26/47/13 25/48/13
f 25/49/13 26/50/13 28/51/14 27/52/14
f 27/53/14 28/54/14 30/55/15 29/56/15
f 29/57/15 30/58/15 32/59/16 31/60/16
f 31/61/16 32/62/16 34/63/17 33/64/17
f 33/65/17 34/66/17 36/67/18 35/68/18
f 35/69/18 36/70/18 38/71/19 37/72/19
f 37/73/19 38/74/19 40/75/20 39/76/20
f 39/77/20 40/78/20 42/79/21 41/80/21
f 41/81/21 42/82/21 44/83/22 43/84/22
f 43/85/22 44/86/22 46/87/23 45/88/23
f 45/89/23 46/90/23 48/91/24 47/92/24
f 47/93/24 48/94/24 50/95/25 49/96/25
f 49/97/25 50/98/25 52/99/26 51/100/26
f 51/101/26 52/102/26 54/103/27 53/104/27
f 53/105/27 54/106/27 56/107/28 55/108/28
f 55/109/28 56/110/28 58/111/29 57/112/29
f 57/113/29 58/114/29 60/115/30 59/116/30
f 59/117/30 60/118/30 62/119/31 61/120/31
f 4/121/32 2/122/32 64/123/32 62/124/32 60/125/32 58/126/32 56/127/32 54/128/32 52/129/32 50/130/32 48/131/32 46/132/32 44/133/32 42/134/32 40/135/32 38/136/32 36/137/32 34/138/32 32/139/32 30/140/32 28/141/32 26/142/32 24/143/32 22/144/32 20/145/32 18/146/32 16/147/32 14/148/32 12/149/32 10/150/32 8/151/32 6/152/32
f 61/153/31 62/154/31 64/155/33 63/156/33
f 63/157/33 64/158/33 2/159/1 1/160/1
f 1/161/34 3/162/34 5/163/34 7/164/34 9/165/34 11/166/34 13/167/34 15/168/34 17/169/34 19/170/34 21/171/34 23/172/34 25/173/34 27/174/34 29/175/34 31/176/34 33/177/34 35/178/34 37/179/34 39/180/34 41/181/34 43/182/34 45/183/34 47/184/34 49/185/34 51/186/34 53/187/34 55/188/34 57/189/34 59/190/34 61/191/34 63/192/34
